<svg xmlns="http://www.w3.org/2000/svg" width="169.592" height="146.438" viewBox="0 0 169.592 146.438">
  <g id="Logo_Ministère_des_Armées__2020_" data-name="Logo_Ministère_des_Armées_(2020)" transform="translate(-27.395 -25.898)">
    <path id="DEVISE_REPUBLICAINE" d="M90.643,159.947c.531,0,.955.424.743,1.379l-2.441.531c.424-1.061,1.167-1.91,1.7-1.91m1.379,3.926h-.531a2.911,2.911,0,0,1-1.91,1.273c-.637,0-1.061-.424-1.061-1.273a3.61,3.61,0,0,1,.106-1.061l3.926-1.273c.743-1.8-.106-2.653-1.273-2.653-1.91,0-4.032,3.077-4.032,5.836,0,1.273.637,1.91,1.486,1.91,1.273,0,2.335-1.061,3.29-2.759m-.849-5.73,2.759-2.547v-.318H92.447l-1.7,2.865Zm-8.489,1.8H83.96l-2.122,5.73a.638.638,0,0,0,.531.955,4.747,4.747,0,0,0,3.714-2.759h-.318a6.3,6.3,0,0,1-2.441,1.486l1.91-5.306h1.91l.212-.849h-1.91l.743-2.016h-.743L84.064,159.2l-1.592.212v.531h.212Zm-1.7-.212c.106-.531-.212-.849-.424-.849a3.888,3.888,0,0,0-3.077,2.441H77.8a2.547,2.547,0,0,1,1.6-1.163l-2.228,5.624a.588.588,0,0,0,.424.849,3.62,3.62,0,0,0,2.865-2.441h-.318a2.547,2.547,0,0,1-1.592,1.167Zm.318-2.865a.951.951,0,1,0-.676-.279.955.955,0,0,0,.676.279m-12.521,8.7c-.318.637,0,1.061.637,1.061.424,0,.531-.106.743-.531l1.486-4.032a5.59,5.59,0,0,1,2.759-1.8c.424,0,.318.318.106.849l-2.334,4.457a.664.664,0,0,0,.531.955,3.746,3.746,0,0,0,3.077-2.441h-.318a2.547,2.547,0,0,1-1.592,1.167l2.016-4.032a4.049,4.049,0,0,0,.424-1.379.952.952,0,0,0-1.061-1.061c-.955,0-2.016,1.061-3.183,2.441v-1.06c0-.743-.212-1.379-.955-1.379a1.818,1.818,0,0,0-1.273.849v.106c.743,0,1.061,1.061.531,2.228Zm0-4.987c.318-.955.106-1.7-.637-1.7-.849,0-1.061.637-1.91,2.441v-1.061c0-.743-.212-1.379-.955-1.379-.849,0-1.486,1.273-2.122,2.441h.318c.424-.531.743-.849,1.061-.849s.531.531,0,1.7l-1.592,3.4c-.318.637,0,1.061.637,1.061.424,0,.531-.106.743-.531l1.486-4.032c.424-.531.849-.955,1.273-1.486Zm-8.807-.637c.531,0,.955.424.743,1.379l-2.441.531c.424-1.061,1.167-1.91,1.7-1.91m1.379,3.926h-.531a2.911,2.911,0,0,1-1.91,1.273c-.637,0-1.061-.424-1.061-1.273a3.61,3.61,0,0,1,.106-1.061l3.926-1.273c.743-1.8-.106-2.653-1.273-2.653-1.91,0-4.032,3.077-4.032,5.836,0,1.273.637,1.91,1.486,1.91,1.273,0,2.334-1.061,3.29-2.759m-9.338-3.926h1.273l-2.122,5.73a.638.638,0,0,0,.531.955,4.747,4.747,0,0,0,3.714-2.759H55.1a6.3,6.3,0,0,1-2.441,1.486l1.91-5.306h1.91l.212-.849h-1.91l.743-2.016h-.531L53.61,159.2l-1.592.212v.531Zm-7.11,4.457c0-1.8,1.91-4.138,3.077-4.138a1.346,1.346,0,0,1,.637.106l-1.167,3.077c-.637.849-1.7,1.8-2.122,1.8-.318-.106-.424-.318-.424-.849m5.942-5.836h-.637l-.637.637h-.106c-3.29,0-6.048,3.608-6.048,6.261a1.062,1.062,0,0,0,1.167,1.167c.849,0,1.7-1.167,2.547-2.441v.424c-.106,1.273.318,2.016.955,2.016.849,0,1.486-1.273,2.122-2.441H49.9c-.424.531-.743.849-1.061.849s-.531-.531,0-1.7Zm-6.9,2.016c.318-.955.106-1.7-.637-1.7-.849,0-1.061.637-1.91,2.441v-1.061c0-.743-.212-1.379-.955-1.379-.849,0-1.486,1.273-2.122,2.441h.318c.424-.531.743-.849,1.061-.849s.531.531,0,1.7l-1.592,3.4c-.318.637,0,1.061.637,1.061.424,0,.531-.106.743-.531l1.486-4.032c.424-.531.849-.955,1.273-1.486Zm-10.93,5.73.106-.424c-1.91-.318-2.122-.318-1.379-2.441l.743-2.122h2.122c.955,0,.955.424.849,1.379H36l1.273-3.4h-.531c-.424.849-.849,1.379-1.91,1.379h-2.02l1.061-2.971c.318-.955.531-1.167,1.8-1.167h.955c1.273,0,1.486.318,1.486,1.7h.531l.424-2.334H31.22l-.106.424c1.486.318,1.7.424.955,2.441l-1.7,4.669c-.743,1.91-1.061,2.122-2.759,2.441l-.212.424ZM71.543,142.12c.531,0,.955.424.743,1.379l-2.441.531c.424-1.061,1.167-1.91,1.7-1.91m1.379,3.926h-.531a2.911,2.911,0,0,1-1.91,1.273c-.637,0-1.061-.424-1.061-1.273a3.61,3.61,0,0,1,.106-1.061l3.926-1.273c.743-1.8-.106-2.653-1.273-2.653-1.91,0-4.032,3.077-4.032,5.836,0,1.273.637,1.91,1.486,1.91,1.273,0,2.334-1.061,3.29-2.759m-.743-5.73,2.759-2.547v-.318H73.453l-1.7,2.865Zm-8.6,1.8h1.273l-2.122,5.73a.638.638,0,0,0,.531.955,4.747,4.747,0,0,0,3.714-2.759H66.66a6.3,6.3,0,0,1-2.441,1.486l1.91-5.306h1.91l.212-.849H66.662l.743-2.016h-.743l-1.379,2.016-1.592.212v.531h-.106Zm-1.7-.212c.106-.531-.212-.849-.424-.849a3.888,3.888,0,0,0-3.077,2.441H58.7a2.547,2.547,0,0,1,1.592-1.167l-2.228,5.624a.588.588,0,0,0,.424.849,3.62,3.62,0,0,0,2.865-2.441h-.318a2.547,2.547,0,0,1-1.592,1.167Zm.318-2.865a.955.955,0,1,0-.955-.955c.106.531.424.955.955.955m-7.534,8.489,3.926-10.4-.106-.106-2.441.318v.318l.531.318c.424.318.318.637-.106,1.7l-3.07,8.175a.664.664,0,0,0,.531.955,3.484,3.484,0,0,0,2.865-2.441h-.318a3.35,3.35,0,0,1-1.8,1.167m-7.534-.955c0-1.8,1.91-4.138,3.077-4.138a1.346,1.346,0,0,1,.637.106l-1.167,3.077c-.637.849-1.7,1.8-2.122,1.8-.318-.106-.424-.318-.424-.849m5.942-5.836H52.45l-.637.637H51.7c-3.29,0-6.048,3.608-6.048,6.261a1.062,1.062,0,0,0,1.167,1.167c.849,0,1.7-1.167,2.547-2.441v.424c-.106,1.273.318,2.016.955,2.016.849,0,1.486-1.273,2.122-2.441h-.318c-.424.531-.743.849-1.061.849s-.531-.531,0-1.7Zm-14.431,9.444c0-.743.743-1.273,1.8-1.592.318.212.849.318,1.486.637,1.061.318,1.486.531,1.486.849,0,.743-1.167,1.273-2.759,1.273-1.379-.212-2.016-.424-2.016-1.167m2.865-4.563c-.424,0-.637-.424-.637-.849,0-1.273.637-3.183,1.8-3.183.424,0,.637.424.637.849,0,1.273-.637,3.183-1.8,3.183m3.183,3.82c0-.955-.849-1.273-2.122-1.592-1.167-.318-1.7-.424-1.7-.849,0-.318.212-.637.743-.955a3.307,3.307,0,0,0,3.077-3.183c0-.318-.106-.531-.106-.743h1.592l.212-.849H43.848a1.793,1.793,0,0,0-1.061-.318,3.282,3.282,0,0,0-3.289,3.183,1.859,1.859,0,0,0,1.486,1.91c-.955.424-1.486.849-1.486,1.486a.8.8,0,0,0,.424.743c-2.122.637-2.971,1.379-2.971,2.334s1.273,1.379,2.865,1.379c2.653.106,4.881-1.273,4.881-2.547m-9.975-6.048c.955,0,.955.424.849,1.379H36.1l1.273-3.4h-.637c-.424.849-.849,1.379-1.91,1.379H32.812l1.061-2.865c.318-.955.531-1.167,1.8-1.167h.955c1.273,0,1.486.318,1.486,1.7h.531l.424-2.334H31.22l-.106.424c1.486.318,1.7.424.955,2.441l-1.8,4.669c-.743,1.91-1.061,2.122-2.759,2.441l-.106.424h8.7l1.592-2.441h-.531a5.546,5.546,0,0,1-4.032,1.8c-2.334,0-2.122-.106-1.379-2.228l.849-2.228Zm1.167-5.942,2.759-1.91v-.318h-1.7l-1.486,2.228Zm34.805-13.158c.531,0,.955.424.743,1.379L69,126.2c.318-1.061,1.061-1.91,1.7-1.91m1.273,3.926h-.531a2.911,2.911,0,0,1-1.91,1.273c-.637,0-1.061-.424-1.061-1.273a3.271,3.271,0,0,1,.106-1.061l3.926-1.273c.743-1.8-.106-2.653-1.273-2.653-1.91,0-4.032,3.077-4.032,5.836,0,1.273.637,1.91,1.486,1.91,1.273,0,2.441-1.061,3.289-2.759m-.743-5.73,2.759-2.547v-.318H72.5l-1.7,2.865h.424Zm-8.171,1.8H64.12L62,130.016a.638.638,0,0,0,.531.955,4.747,4.747,0,0,0,3.714-2.759h-.318a5.6,5.6,0,0,1-2.441,1.486l1.91-5.306H67.3l.212-.849H65.6l.743-2.016H65.6l-1.379,2.016-1.379.212v.531h.212ZM62,124.923c.318-.955.106-1.7-.637-1.7-.849,0-1.061.637-1.91,2.441V124.6c0-.743-.212-1.379-.955-1.379-.849,0-1.486,1.273-2.122,2.441h.318c.424-.531.743-.849,1.061-.849s.531.531,0,1.7l-1.486,3.4c-.318.637,0,1.061.637,1.061.424,0,.531-.106.743-.531l1.592-3.926c.424-.531.849-.955,1.273-1.486H62Zm-8.7-.637c.531,0,.955.424.743,1.379L51.6,126.2c.424-1.061,1.061-1.91,1.7-1.91m1.379,3.926H54.14a2.911,2.911,0,0,1-1.91,1.273c-.637,0-1.061-.424-1.061-1.273a3.271,3.271,0,0,1,.106-1.061l3.926-1.273c.743-1.8-.106-2.653-1.273-2.653-1.91,0-4.032,3.077-4.032,5.836,0,1.273.637,1.91,1.486,1.91,1.273,0,2.334-1.061,3.289-2.759M44.909,129.8c-.424,0-.955-.318-.955-.637a9.994,9.994,0,0,1,.424-1.061l.637-1.7a4.11,4.11,0,0,1,2.334-1.7c.318,0,.637.212.637.743,0,1.592-1.486,4.351-3.077,4.351m4.563-4.987c0-1.167-.424-1.592-1.273-1.592-.955,0-1.91,1.061-2.865,2.334l2.334-6.261-.106-.106-2.441.318v.318l.531.318c.424.318.318.743-.106,1.7L43,128.432a8.7,8.7,0,0,0-.424,1.167c0,.637.955,1.273,1.8,1.273,1.8.106,5.093-3.4,5.093-6.048m-7.746-.743c.106-.531-.212-.849-.424-.849a3.888,3.888,0,0,0-3.077,2.441h.318a2.547,2.547,0,0,1,1.592-1.167L37.9,130.13a.588.588,0,0,0,.424.849,3.62,3.62,0,0,0,2.865-2.441h-.318a2.547,2.547,0,0,1-1.592,1.167Zm.318-2.865a.955.955,0,1,0-.955-.955c.106.531.424.955.955.955m-5.73-.955h-5.2l-.106.424c1.486.318,1.7.424.955,2.441l-1.7,4.669c-.743,1.91-1.061,2.122-2.759,2.441l-.106.424h7.852l1.7-3.077H36.42c-.955,1.061-2.122,2.441-3.82,2.441-1.273,0-1.486-.212-.743-2.228l1.7-4.669c.743-1.91,1.061-2.122,2.759-2.441v-.424Z" transform="translate(0 5.703)" fill="#fff"/>
    <path id="Fond_2_" d="M55.862,48.714l.849-.849h0c.531-.637,1.061-1.167,1.592-1.7a1.863,1.863,0,0,1,.531-.424.329.329,0,0,1,.106-.212c-.212.106-.424.318-.637.424,0,0-.106,0,0-.106a1.863,1.863,0,0,0,.531-.424h0v-.106a1.909,1.909,0,0,0-1.592.743H57.03c-.743.212-1.273.849-2.016,1.167v-.106c-.318.106-.531.318-.849.318a4.28,4.28,0,0,1-1.167,0c-.637.106-1.167.212-1.8.318h0l-.955.318h0a.1.1,0,0,1-.106.106l-.318.318c-.318.106-.531.424-.849.637h-.106l-.743.743H48.01c0-.106.106-.106.106-.212s.106-.106.106-.212c.106-.106.106-.212.212-.318v-.106h-.106a5.885,5.885,0,0,1,.849-.637h-.106l.106-.106h0a.228.228,0,0,0-.212.212c-.106.106-.212.318-.424.318h-.106v-.106h0a.1.1,0,0,1,.106-.106h0V48.4l.318-.318h0a2.319,2.319,0,0,0,.531-.318.1.1,0,0,0,.106-.106,1.71,1.71,0,0,0-.743.424H48.54c0-.106.212-.106.318-.212h.106c1.592-1.167,3.714-.955,5.518-1.592.106-.106.318-.212.424-.318.212-.106.424-.318.743-.531a2.4,2.4,0,0,0,.849-1.167v-.106a10.091,10.091,0,0,1-2.122,1.592,11.31,11.31,0,0,1-3.183.637c0-.106.106-.106.212-.106,0-.106.106-.212.212-.318h.106a.1.1,0,0,1,.106-.106h.212c-.106-.212-.424.106-.637,0,.106-.106,0-.212.106-.318h.212a.371.371,0,0,1,.106-.212c.743-.424,1.379-.743,2.122-1.167-.106,0-.212.106-.424,0,.106,0,0-.106.106-.106a8.943,8.943,0,0,0,1.486-.637c-.212,0-.318.106-.531,0,.106,0,.106-.106.318-.106V43.2h0c0-.106.212,0,.318-.106h-.106c.106-.212.424-.212.637-.318,0-.106-.212,0-.212-.106h0c-.106,0,0-.106,0-.212a2.225,2.225,0,0,0,.424-1.167H55.86a4.452,4.452,0,0,1-2.016.955h-.212a1.172,1.172,0,0,1-.849,0,1.863,1.863,0,0,1-.531-.424c-.424-.212-.743-.424-1.167-.637a8.785,8.785,0,0,0-3.714-.531,10.43,10.43,0,0,1,1.7-.531,10.064,10.064,0,0,1,2.441-.531h-.531a7.926,7.926,0,0,0-2.122.318c-.531.106-.955.318-1.379.424-.318.106-.424.424-.743.318v-.106a2.483,2.483,0,0,1,1.8-1.167,10.253,10.253,0,0,1,2.547.106,10.723,10.723,0,0,1,1.8.318c.212,0,.318.424.531.424.318.106.637,0,.849.212v-.318c.212-.212.424,0,.637,0,.424-.212-.318-.637-.531-1.061v-.106c.424.318.637.743,1.167.955.212.106.849.212.743,0a7.142,7.142,0,0,0-1.167-1.486v-.212c-.106,0-.106,0-.106-.106v-.212c-.212-.106-.106-.318-.212-.424-.106-.212,0-.637-.106-.849-.106-.318-.106-.531-.212-.849-.106-.849-.318-1.592-.424-2.334A4.114,4.114,0,0,1,55.008,31a3.966,3.966,0,0,1,1.384-1.6,3.565,3.565,0,0,1,.955-1.592,5.844,5.844,0,0,1,1.486-.955A3.453,3.453,0,0,1,60,25.9h9.762l.212.106c.212.106.531.318.743.424a3.3,3.3,0,0,1,.955.743.651.651,0,0,1,.106.637c-.106.212-.106.637-.424.743a3.271,3.271,0,0,1-1.061.106,1.346,1.346,0,0,1-.637-.106,4.663,4.663,0,0,1,1.91,1.273c0,.106.212.106.424.106v.106c-.106.106-.212.106-.106.318H72.2c.212-.106.212-.637.531-.424a.656.656,0,0,1,.212.743c-.212.212-.424.318-.637.531v.318a1.508,1.508,0,0,1,.212.637c.106.318.212.743.318,1.061a4.189,4.189,0,0,1,.424,2.228c0,.424-.212.743,0,1.167a4.957,4.957,0,0,0,.531,1.061c.212.318.424.531.531.743.318.531.849.955.637,1.592-.106.318-.637.318-1.061.531-.318.212,0,.637.106.849.212.424-.318.743-.637.849.106.106.318.106.318.212,0,.212.318.424.106.637-.212.318-.743.424-.531.849a1.239,1.239,0,0,1,0,1.061,1.188,1.188,0,0,1-.849.743,1.472,1.472,0,0,1-.955,0c-.106,0-.212-.106-.318-.106A22.056,22.056,0,0,0,68.7,45.32a1.138,1.138,0,0,0-.637.212c-.212.212-.424.318-.637.531h0l-.106.106-.106.106h0c-.106.212-.318.318-.424.531h0v.106a1.693,1.693,0,0,0-.318.849,3.221,3.221,0,0,0,0,2.334c.106.106,1.592.531,2.653,1.061.531.212.849.424,1.167.531H50.238A22.139,22.139,0,0,1,53.421,50.1a13.332,13.332,0,0,0,2.441-1.379m-7.428-3.5h-.212c0-.212.424-.212.637-.318.106,0,.212-.106.318-.106.106.106.212.106.318.212-.318.212-.743,0-1.061.212M40.9,44.045h0A22.284,22.284,0,0,0,42.386,41.5a6.928,6.928,0,0,0,1.7-1.379A8.754,8.754,0,0,1,46.842,38a2.587,2.587,0,0,1,1.273,0c-.106.212-.424.106-.637.318h-.106v-.106c-.531.531-1.167.743-1.592,1.379-.318.531-.531,1.167-1.167,1.273-.212,0,0-.106,0-.106A26.628,26.628,0,0,0,40.9,44.045m4.138-3.183c0,.106-.106.106-.106.212s-.106.106-.212.212h-.106a.389.389,0,0,1,.424-.424h0m2.228,7.322c0,.106-.106.106,0,0V48.4c-.106.106-.212.212-.318.212h-.106l-.212.212c-.106,0-.318,0-.212-.106l.318-.318.212-.212.106-.106s.212,0,.212.106m-.849-.424h0a2.314,2.314,0,0,0-.531.424l-.637.318h-.106a1.863,1.863,0,0,0-.531.424l-.106.106h0l-.106.106h0l-.106.106-.106.106H43.87c-.106,0-.106.106-.212.106l-.318.318h0v-.106h0c0-.106.106-.106.106-.212h0v-.106l.106-.106h0c.106-.106.106-.106.106-.212h0l.212-.212h0v-.106h0v-.106h0V48.5h0c.106-.106.106-.212.212-.212h0c-.106,0-.106.106-.212.106a.1.1,0,0,1-.106-.106l.106-.106h0c.106-.106.106-.212.212-.212a.1.1,0,0,0,.106-.106h0l.106-.106h0c.424-.424,1.273-.424,1.91-.743.212-.106.531,0,.743,0a.638.638,0,0,1,.424.106c-.212.106-.637.424-.955.637m.955-3.4a.329.329,0,0,0,.212-.106h-.424v-.106a1.967,1.967,0,0,0-.743.212,11.006,11.006,0,0,1-1.061.424c-.531.212-.955.637-1.592.849v-.106c0-.106.212-.212.318-.318V45.1a15.07,15.07,0,0,1,1.379-1.273v-.106c.106-.212.424-.318.531-.531,0-.106.212-.318.531-.424a.1.1,0,0,1-.106-.106c-.212,0-.424.106-.637,0,.106-.106.212-.106.318-.212a.1.1,0,0,1-.106-.106.228.228,0,0,1,.212-.212.78.78,0,0,0,.637-.212,1.834,1.834,0,0,1-1.061-.106,2.509,2.509,0,0,1,1.273-1.486h.106a.541.541,0,0,1-.424.531,4.784,4.784,0,0,1,1.167.318c0,.106-.106,0-.212,0,.212.106.531,0,.743.212-.106.106-.318,0-.424,0a11.171,11.171,0,0,1,4.351,1.8,18.055,18.055,0,0,1-3.4,1.061H48.54v.106a.957.957,0,0,0-.531.106c-.212,0-.424.106-.637-.106" transform="translate(0.825)" fill="#fff"/>
    <path id="Rouge_1_" d="M56.687,48.714l.849-.849h0c.531-.637,1.061-1.167,1.592-1.7a1.863,1.863,0,0,1,.531-.424.329.329,0,0,1,.106-.212c-.212.106-.424.318-.637.424,0,0-.106,0,0-.106a1.863,1.863,0,0,0,.531-.424h0v-.106a1.909,1.909,0,0,0-1.592.743h-.212c-.743.212-1.273.849-2.016,1.167v-.106c-.318.106-.531.318-.849.318a4.28,4.28,0,0,1-1.167,0c-.637.106-1.167.212-1.8.318h0l-.955.318h0a.1.1,0,0,1-.106.106l-.318.318c-.318.106-.531.424-.849.637h-.106l-.743.743H48.84c0-.106.106-.106.106-.212s.106-.106.106-.212c.106-.106.106-.212.212-.318v-.106h-.106A5.885,5.885,0,0,1,50,48.4h-.1l.1-.11h0a.228.228,0,0,0-.212.212c-.106.106-.212.318-.424.318h-.106v-.106h0a.1.1,0,0,1,.106-.106h0V48.4l.318-.318h0a2.319,2.319,0,0,0,.531-.318.1.1,0,0,0,.106-.106,1.71,1.71,0,0,0-.743.424h-.212c0-.106.212-.106.318-.212h.106c1.592-1.167,3.714-.955,5.518-1.592.106-.106.318-.212.424-.318.212-.106.424-.318.743-.531a2.4,2.4,0,0,0,.849-1.167v-.106A10.091,10.091,0,0,1,55.2,45.743a11.31,11.31,0,0,1-3.183.637c0-.106.106-.106.212-.106,0-.106.106-.212.212-.318h.106a.1.1,0,0,1,.106-.106h.212c-.106-.212-.424.106-.637,0,.106-.106,0-.212.106-.318h.212a.371.371,0,0,1,.106-.212c.743-.424,1.379-.743,2.122-1.167-.106,0-.212.106-.424,0,.106,0,0-.106.106-.106a8.943,8.943,0,0,0,1.486-.637c-.212,0-.318.106-.531,0,.106,0,.106-.106.318-.106v-.1h0c0-.106.212,0,.318-.106h-.106c.106-.212.424-.212.637-.318,0-.106-.212,0-.212-.106h0c-.106,0,0-.106,0-.212a2.225,2.225,0,0,0,.424-1.167h-.106a4.452,4.452,0,0,1-2.016.955h-.212a1.172,1.172,0,0,1-.849,0,1.863,1.863,0,0,1-.531-.424c-.424-.212-.743-.424-1.167-.637A8.785,8.785,0,0,0,48.2,40.65a10.43,10.43,0,0,1,1.7-.531,10.063,10.063,0,0,1,2.441-.531H51.81a7.926,7.926,0,0,0-2.122.318c-.531.106-.955.318-1.379.424-.318.106-.424.424-.743.318v-.106a2.483,2.483,0,0,1,1.8-1.167,10.253,10.253,0,0,1,2.547.106,10.723,10.723,0,0,1,1.8.318c.212,0,.318.424.531.424.318.106.637,0,.849.212v-.318c.212-.212.424,0,.637,0,.424-.212-.318-.637-.531-1.061V38.95c.424.318.637.743,1.167.955.212.106.849.212.743,0a7.142,7.142,0,0,0-1.167-1.486v-.212c-.106,0-.106,0-.106-.106v-.212c-.212-.106-.106-.318-.212-.424-.106-.212,0-.637-.106-.849-.106-.318-.106-.531-.212-.849-.106-.849-.318-1.592-.424-2.334a4.114,4.114,0,0,1,.955-2.441A3.966,3.966,0,0,1,57.218,29.4a3.565,3.565,0,0,1,.955-1.592,5.844,5.844,0,0,1,1.486-.955,3.453,3.453,0,0,1,1.167-.955H27.4V51.685H51.063a22.137,22.137,0,0,1,3.183-1.592,13.335,13.335,0,0,0,2.441-1.38m-7.428-3.5h-.212c0-.212.424-.212.637-.318.106,0,.212-.106.318-.106.106.106.212.106.318.212-.318.212-.743,0-1.061.212m-7.428-1.167h0A22.283,22.283,0,0,0,43.317,41.5a6.928,6.928,0,0,0,1.7-1.379A8.754,8.754,0,0,1,47.774,38a2.587,2.587,0,0,1,1.273,0c-.106.212-.424.106-.637.318H48.3v-.106c-.531.531-1.167.743-1.592,1.379-.318.531-.531,1.167-1.167,1.273-.212,0,0-.106,0-.106a18.342,18.342,0,0,0-3.714,3.289m4.032-3.183c0,.106-.106.106-.106.212s-.106.106-.212.212h-.106a.389.389,0,0,1,.424-.424h0m2.228,7.322c0,.106-.106.106,0,0V48.4c-.106.106-.212.212-.318.212h-.106l-.212.212c-.106,0-.318,0-.212-.106l.318-.318.212-.212.106-.106s.212,0,.212.106m-.849-.424h0a2.314,2.314,0,0,0-.531.424l-.637.318h-.1a1.863,1.863,0,0,0-.531.424l-.106.106h0l-.106.106h0l-.106.106-.106.106H44.7c-.106,0-.106.106-.212.106l-.318.318h0v-.106h0c0-.106.106-.106.106-.212h0v-.106l.106-.106h0c.106-.106.106-.106.106-.212h0l.212-.212h0v-.106h0v-.106h0V48.5h0c.106-.106.106-.212.212-.212h0c-.106,0-.106.106-.212.106a.1.1,0,0,1-.106-.106l.106-.106h0c.106-.106.106-.212.212-.212a.1.1,0,0,0,.106-.106h0l.106-.106h0c.424-.424,1.273-.424,1.91-.743.212-.106.531,0,.743,0a.638.638,0,0,1,.424.106c-.212.106-.531.424-.955.637m.955-3.4a.329.329,0,0,0,.212-.106h-.424v-.106a1.967,1.967,0,0,0-.743.212,11.007,11.007,0,0,1-1.061.424c-.531.212-.955.637-1.592.849v-.106c0-.106.212-.212.318-.318V45.1a15.07,15.07,0,0,1,1.379-1.273v-.106c.106-.212.424-.318.531-.531,0-.106.212-.318.531-.424a.1.1,0,0,1-.106-.106c-.212,0-.424.106-.637,0,.106-.106.212-.106.318-.212a.1.1,0,0,1-.106-.106.228.228,0,0,1,.212-.212.78.78,0,0,0,.637-.212,1.834,1.834,0,0,1-1.061-.106,2.509,2.509,0,0,1,1.273-1.486h.106a.542.542,0,0,1-.424.531,4.784,4.784,0,0,1,1.167.318c0,.106-.106,0-.212,0,.212.106.531,0,.743.212-.106.106-.318,0-.424,0a11.171,11.171,0,0,1,4.351,1.8,18.055,18.055,0,0,1-3.4,1.061h-.424v.106a.957.957,0,0,0-.531.106c-.212,0-.424.106-.637-.106" fill="#000091"/>
    <path id="Bleu_1_" d="M96.1,25.9H68.3l.212.106c.212.106.531.318.743.424a3.3,3.3,0,0,1,.955.743.651.651,0,0,1,.106.637c-.106.212-.106.637-.424.743a3.271,3.271,0,0,1-1.061.106,1.346,1.346,0,0,1-.637-.106,4.663,4.663,0,0,1,1.91,1.273c0,.106.212.106.424.106v.106c-.106.106-.212.106-.106.318h.318c.212-.106.212-.637.531-.424a.656.656,0,0,1,.212.743c-.212.212-.424.318-.637.531v.318a1.508,1.508,0,0,1,.212.637c.106.318.212.743.318,1.061A4.189,4.189,0,0,1,71.8,35.45c0,.424-.212.743,0,1.167a4.956,4.956,0,0,0,.531,1.061c.212.318.424.531.531.743.318.531.849.955.637,1.592-.106.318-.637.318-1.061.531-.318.212,0,.637.106.849.212.424-.318.743-.637.849.106.106.318.106.318.212,0,.212.318.424.106.637-.212.318-.743.424-.531.849a1.239,1.239,0,0,1,0,1.06,1.188,1.188,0,0,1-.849.743,1.472,1.472,0,0,1-.955,0c-.106,0-.212-.106-.318-.106a22.056,22.056,0,0,0-2.441-.318,1.138,1.138,0,0,0-.637.212c-.212.212-.424.318-.637.531h0l-.106.106-.106.106h0c-.106.212-.318.318-.424.531h0v.106a1.693,1.693,0,0,0-.318.849,3.221,3.221,0,0,0,0,2.334c.106.106,1.592.531,2.653,1.061.531.212.849.424,1.167.531H96.1Z" transform="translate(2.287)" fill="#e1000f"/>
    <path id="Yeux_1_" d="M69.81,34.827c.212,0,.531,0,.531.106-.106.424-.637.531-.955.849H69.28c-.106.106-.106.318-.212.318h-.424a.963.963,0,0,0,.743.318.371.371,0,0,1,.106.212H69.7v.212c-.106.212-.424.106-.637.106a2.18,2.18,0,0,0,1.167,0c.318-.106,0-.637.212-.849-.106,0,0-.106-.106-.106l.318-.318a.39.39,0,0,0,.318-.106c0-.106-.212-.106-.106-.212.318-.212.531-.531.424-.743,0-.106-.424-.106-.637-.212s-.531,0-.849,0a1.967,1.967,0,0,0-.743.212,4.594,4.594,0,0,0-1.167.424c.318-.106.637-.212,1.061-.318.318.106.531,0,.849.106" transform="translate(2.476 0.517)" fill="#9c9b9b"/>
    <g id="Groupe_1754" data-name="Groupe 1754" transform="translate(27.4 59.432)">
      <path id="Tracé_4153" data-name="Tracé 4153" d="M27.4,81.813V62.5h4.881l4.669,7.958L41.619,62.5h4.987V81.813H42.68V68.124l-4.351,7.11H35.571l-4.351-7.11V81.813Z" transform="translate(-27.4 -57.194)" fill="#fff"/>
      <path id="Tracé_4154" data-name="Tracé 4154" d="M50.8,81.813V62.5h3.926V81.813Z" transform="translate(-25.97 -57.194)" fill="#fff"/>
      <path id="Tracé_4155" data-name="Tracé 4155" d="M59.9,81.813V62.5h4.987l8.6,13.795V62.5h3.926V81.813H72.421l-8.6-13.9v13.9Z" transform="translate(-25.413 -57.194)" fill="#fff"/>
      <path id="Tracé_4156" data-name="Tracé 4156" d="M81.8,81.813V62.5h3.926V81.813Z" transform="translate(-24.075 -57.194)" fill="#fff"/>
      <path id="Tracé_4157" data-name="Tracé 4157" d="M89.2,79.19l2.865-2.653a6.161,6.161,0,0,0,2.016,1.7,4.544,4.544,0,0,0,2.334.637,2.5,2.5,0,0,0,1.8-.637,2.16,2.16,0,0,0,.637-1.592,2.224,2.224,0,0,0-1.379-2.016c-.955-.424-1.91-.955-3.077-1.486a13.962,13.962,0,0,1-3.077-2.016,4.5,4.5,0,0,1-1.379-3.608,4.751,4.751,0,0,1,.424-2.122,6.971,6.971,0,0,1,1.273-1.8,4.44,4.44,0,0,1,1.91-1.167A6.421,6.421,0,0,1,96.1,62a8.455,8.455,0,0,1,3.82.849,8.933,8.933,0,0,1,2.865,2.334L99.917,67.73a9.675,9.675,0,0,0-1.8-1.8,3.494,3.494,0,0,0-2.017-.64,2.388,2.388,0,0,0-1.592.531,1.927,1.927,0,0,0-.637,1.486,2.224,2.224,0,0,0,1.379,2.016c.955.424,1.91.955,3.077,1.486a13.963,13.963,0,0,1,3.077,2.016,4.731,4.731,0,0,1,1.379,3.714,6.3,6.3,0,0,1-.531,2.441,5.833,5.833,0,0,1-1.379,1.8,6.289,6.289,0,0,1-2.016,1.167,6.225,6.225,0,0,1-2.441.424,9.917,9.917,0,0,1-4.138-.849A9.473,9.473,0,0,1,89.2,79.19Z" transform="translate(-23.622 -57.225)" fill="#fff"/>
      <path id="Tracé_4158" data-name="Tracé 4158" d="M104.1,66.108V62.5h15.811v3.608h-5.942v15.7h-3.926v-15.7Z" transform="translate(-22.711 -57.194)" fill="#fff"/>
      <path id="Tracé_4159" data-name="Tracé 4159" d="M122.5,82.118V62.806h11.248V66.1h-7.322v4.457h6.261v3.4h-6.261v4.775h7.322v3.289H122.5Zm3.926-20.9L122.818,57.5h4.032l3.077,3.714Z" transform="translate(-21.587 -57.5)" fill="#fff"/>
      <path id="Tracé_4160" data-name="Tracé 4160" d="M137.7,81.813V62.5h5.942a7.218,7.218,0,0,1,4.987,1.592,5.118,5.118,0,0,1,1.8,4.245,5.43,5.43,0,0,1-.849,2.971,5.874,5.874,0,0,1-2.228,2.016l6.048,8.6h-4.669l-5.093-7.852h-2.016v7.852H137.7ZM143.855,65.9h-2.228v4.881h2.228a2.594,2.594,0,0,0,1.91-.637,2.56,2.56,0,0,0,.743-1.8,1.979,1.979,0,0,0-.743-1.7A2.27,2.27,0,0,0,143.855,65.9Z" transform="translate(-20.657 -57.194)" fill="#fff"/>
      <path id="Tracé_4161" data-name="Tracé 4161" d="M155.1,81.813V62.5h11.248v3.289h-7.322v4.457h6.261v3.4h-6.261v4.775h7.322V81.71H155.1Z" transform="translate(-19.594 -57.194)" fill="#fff"/>
      <path id="Tracé_4162" data-name="Tracé 4162" d="M27.4,108.013V88.7h7.64a11.168,11.168,0,0,1,4.245.743,9.751,9.751,0,0,1,3.289,2.122A10,10,0,0,1,44.7,94.642a9.439,9.439,0,0,1-2.122,10.5,11.686,11.686,0,0,1-3.289,2.122,10.81,10.81,0,0,1-4.245.743Zm7.64-15.7H31.326v12.2H35.04a6.226,6.226,0,0,0,2.441-.424,5.791,5.791,0,0,0,3.608-5.518,6.226,6.226,0,0,0-.424-2.441,5.853,5.853,0,0,0-3.183-3.183,6.4,6.4,0,0,0-2.442-.639Z" transform="translate(-27.4 -55.593)" fill="#fff"/>
      <path id="Tracé_4163" data-name="Tracé 4163" d="M48,108.013V88.7H59.248v3.289H51.926v4.457h6.261v3.289H51.926v4.775h7.322v3.29H48Z" transform="translate(-26.141 -55.593)" fill="#fff"/>
      <path id="Tracé_4164" data-name="Tracé 4164" d="M61.6,105.39l2.865-2.653a6.162,6.162,0,0,0,2.016,1.7,4.544,4.544,0,0,0,2.334.637,2.5,2.5,0,0,0,1.8-.637,2.16,2.16,0,0,0,.637-1.592,2.224,2.224,0,0,0-1.379-2.016c-.955-.424-1.91-.955-3.077-1.486a13.962,13.962,0,0,1-3.077-2.016,4.5,4.5,0,0,1-1.379-3.608,4.751,4.751,0,0,1,.424-2.122,6.972,6.972,0,0,1,1.273-1.8,4.44,4.44,0,0,1,1.91-1.167A6.421,6.421,0,0,1,68.5,88.2a8.455,8.455,0,0,1,3.82.849,8.933,8.933,0,0,1,2.865,2.334L72.317,93.93a9.675,9.675,0,0,0-1.8-1.8,3.494,3.494,0,0,0-2.017-.64,2.388,2.388,0,0,0-1.592.531,1.927,1.927,0,0,0-.637,1.486,2.224,2.224,0,0,0,1.379,2.016c.955.424,1.91.955,3.077,1.486A13.963,13.963,0,0,1,73.8,99.024a4.731,4.731,0,0,1,1.379,3.714,6.294,6.294,0,0,1-.531,2.441,5.833,5.833,0,0,1-1.379,1.8,6.289,6.289,0,0,1-2.016,1.167,6.226,6.226,0,0,1-2.441.424,9.917,9.917,0,0,1-4.138-.849A8.472,8.472,0,0,1,61.6,105.39Z" transform="translate(-25.309 -55.623)" fill="#fff"/>
      <path id="Tracé_4165" data-name="Tracé 4165" d="M83.2,108.013,90.522,88.7h5.093l7.322,19.313H98.8L97,103.026H89.248l-1.8,4.987Zm7.216-8.383h5.306l-2.653-7.216Z" transform="translate(-23.989 -55.593)" fill="#fff"/>
      <path id="Tracé_4166" data-name="Tracé 4166" d="M104.9,108.013V88.7h5.942a7.218,7.218,0,0,1,4.987,1.592,5.118,5.118,0,0,1,1.8,4.245,5.43,5.43,0,0,1-.849,2.971,5.874,5.874,0,0,1-2.228,2.016l6.048,8.6h-4.669l-5.093-7.852h-2.016v7.852H104.9ZM111.055,92.1h-2.228v4.881h2.228a2.594,2.594,0,0,0,1.91-.637,2.56,2.56,0,0,0,.743-1.8,1.979,1.979,0,0,0-.743-1.7,2.407,2.407,0,0,0-1.91-.744Z" transform="translate(-22.662 -55.593)" fill="#fff"/>
      <path id="Tracé_4167" data-name="Tracé 4167" d="M122.3,108.013V88.7h4.987l4.669,7.958,4.669-7.958h4.987v19.313h-3.926V94.324l-4.351,7.11H130.47l-4.245-7.11v13.689Z" transform="translate(-21.599 -55.593)" fill="#fff"/>
      <path id="Tracé_4168" data-name="Tracé 4168" d="M145.7,108.318V89.006h11.248V92.3h-7.322v4.457h6.261v3.29h-6.261v4.775h7.322v3.289H145.7Zm7.428-20.9H149.52L152.6,83.7h4.032Z" transform="translate(-20.168 -55.898)" fill="#fff"/>
      <path id="Tracé_4169" data-name="Tracé 4169" d="M160.9,108.013V88.7h11.248v3.289h-7.322v4.457h6.261v3.289h-6.261v4.775h7.322v3.29H160.9Z" transform="translate(-19.239 -55.593)" fill="#fff"/>
      <path id="Tracé_4170" data-name="Tracé 4170" d="M174.4,105.39l2.865-2.653a6.162,6.162,0,0,0,2.016,1.7,4.544,4.544,0,0,0,2.334.637,2.5,2.5,0,0,0,1.8-.637,2.16,2.16,0,0,0,.637-1.592,2.224,2.224,0,0,0-1.379-2.016c-.955-.424-1.91-.955-3.077-1.486a13.962,13.962,0,0,1-3.077-2.016,4.5,4.5,0,0,1-1.379-3.608,4.751,4.751,0,0,1,.424-2.122,6.971,6.971,0,0,1,1.273-1.8,4.441,4.441,0,0,1,1.91-1.167,6.421,6.421,0,0,1,2.553-.43,8.456,8.456,0,0,1,3.82.849,8.933,8.933,0,0,1,2.865,2.334L185.12,93.93a9.676,9.676,0,0,0-1.8-1.8,3.494,3.494,0,0,0-2.016-.637,2.388,2.388,0,0,0-1.592.531,1.927,1.927,0,0,0-.637,1.486,2.224,2.224,0,0,0,1.379,2.016c.955.424,1.91.955,3.077,1.486a13.962,13.962,0,0,1,3.077,2.016,4.731,4.731,0,0,1,1.379,3.714,6.294,6.294,0,0,1-.531,2.441,5.833,5.833,0,0,1-1.379,1.8,6.289,6.289,0,0,1-2.016,1.167,6.226,6.226,0,0,1-2.441.424,9.917,9.917,0,0,1-4.138-.849,9.473,9.473,0,0,1-3.082-2.335Z" transform="translate(-18.414 -55.623)" fill="#fff"/>
    </g>
  </g>
</svg>
