<?xml version="1.0" encoding="utf-8"?>
<!-- Generator: Adobe Illustrator 24.3.0, SVG Export Plug-In . SVG Version: 6.00 Build 0)  -->
<svg version="1.1" id="Calque_1" xmlns="http://www.w3.org/2000/svg" xmlns:xlink="http://www.w3.org/1999/xlink" x="0px" y="0px"
	 viewBox="0 0 56.7 56.7" style="enable-background:new 0 0 56.7 56.7;" xml:space="preserve">
<style type="text/css">
	.st0{fill:#0081FF;}
	.st1{fill:#FFFFFF;}
</style>
<g>
	<circle class="st0" cx="28.3" cy="28.3" r="22.2"/>
	<g>
		<g>
			<path class="st1" d="M36,18.5l1.8-1.8c0.6-0.6,1.6-0.6,2.3,0c0.6,0.6,0.6,1.6,0,2.3l-1.8,1.8c-0.6,0.6-1.6,0.6-2.3,0
				C35.3,20.1,35.3,19.1,36,18.5z M26.9,13.5c0-0.9,0.7-1.6,1.6-1.6s1.6,0.7,1.6,1.6V16c0,0.9-0.7,1.6-1.6,1.6
				c-0.9,0-1.6-0.7-1.6-1.6V13.5z M16.9,16.7c0.6-0.6,1.6-0.6,2.3,0l1.8,1.8c0.6,0.6,0.6,1.6,0,2.3c-0.6,0.6-1.6,0.6-2.3,0l-1.8-1.8
				C16.3,18.3,16.3,17.3,16.9,16.7z M13.8,29.8c-0.9,0-1.6-0.7-1.6-1.6s0.7-1.6,1.6-1.6h2.6c0.9,0,1.6,0.7,1.6,1.6s-0.7,1.6-1.6,1.6
				H13.8z M21,37.9l-1.8,1.8c-0.6,0.6-1.6,0.6-2.3,0c-0.6-0.6-0.6-1.6,0-2.3l1.8-1.8c0.6-0.6,1.6-0.6,2.3,0
				C21.6,36.3,21.6,37.3,21,37.9z M30.1,42.9c0,0.9-0.7,1.6-1.6,1.6s-1.6-0.7-1.6-1.6v-2.6c0-0.9,0.7-1.6,1.6-1.6
				c0.9,0,1.6,0.7,1.6,1.6V42.9z M28.5,36.4c-4.5,0-8.2-3.7-8.2-8.2c0-4.5,3.7-8.2,8.2-8.2c4.5,0,8.2,3.7,8.2,8.2
				C36.7,32.7,33,36.4,28.5,36.4z M40,39.7c-0.6,0.6-1.6,0.6-2.3,0L36,37.9c-0.6-0.6-0.6-1.6,0-2.3c0.6-0.6,1.6-0.6,2.3,0l1.8,1.8
				C40.6,38.1,40.6,39.1,40,39.7z M43.2,29.8h-2.6c-0.9,0-1.6-0.7-1.6-1.6s0.7-1.6,1.6-1.6h2.6c0.9,0,1.6,0.7,1.6,1.6
				S44.1,29.8,43.2,29.8z"/>
		</g>
	</g>
</g>
</svg>
