<?xml version="1.0" encoding="utf-8"?>
<!-- Generator: Adobe Illustrator 24.3.0, SVG Export Plug-In . SVG Version: 6.00 Build 0)  -->
<svg version="1.1" id="Calque_1" xmlns="http://www.w3.org/2000/svg" xmlns:xlink="http://www.w3.org/1999/xlink" x="0px" y="0px"
	 viewBox="0 0 56.7 56.7" style="enable-background:new 0 0 56.7 56.7;" xml:space="preserve">
<style type="text/css">
	.st0{fill:#1D1D1B;}
	.st1{fill:#FFFFFF;}
</style>
<circle class="st0" cx="28.3" cy="28.3" r="22.2"/>
<path class="st1" d="M41.7,30.6c-0.5,3.1-2.1,6-4.5,8.1c-2.4,2.1-5.5,3.3-8.8,3.3c0,0-0.1,0-0.1,0c-3.6,0-6.9-1.4-9.5-3.9
	c-2.6-2.5-4-5.9-4.1-9.6c-0.1-6.5,4.5-12.2,10.9-13.5l1.8-0.4c-2.9,1.9-4.8,5.1-4.8,8.8c0,5.8,4.7,10.4,10.4,10.4
	c3.7,0,6.9-1.9,8.8-4.8L41.7,30.6z"/>
</svg>
