<?xml version="1.0" encoding="utf-8"?>
<!-- Generator: Adobe Illustrator 25.2.0, SVG Export Plug-In . SVG Version: 6.00 Build 0)  -->
<svg version="1.1" id="Calque_1" xmlns="http://www.w3.org/2000/svg" xmlns:xlink="http://www.w3.org/1999/xlink" x="0px" y="0px"
	 viewBox="0 0 174.2 128.7" style="enable-background:new 0 0 174.2 128.7;" xml:space="preserve">
<style type="text/css">
	.st0{fill:#FFFFFF;}
</style>
<g>
	<g>
		<g>
			<path class="st0" d="M121.6,86.5H52.1c-15.7,0-28.5-13.6-28.5-30.3c0-8,2.9-15.6,8.2-21.3c5.4-5.8,12.6-9,20.2-9h21.4
				c2.4,0,4.4-1.9,4.4-4.4l0-17c0-2.3,1.7-4.3,3.9-4.5c2.6-0.2,4.8,1.8,4.8,4.3v21.5c0,4.8-3.9,8.7-8.7,8.7H52.1
				c-5.2,0-10.1,2.2-13.9,6.2c-3.8,4.1-5.9,9.6-5.9,15.4c0,11.9,8.9,21.6,19.8,21.6h69.5c5.2,0,10.1-2.2,13.9-6.2
				c3.8-4.1,5.9-9.6,5.9-15.4c0-11.9-8.9-21.6-19.8-21.6l-24.5,0c-2.3,0-4.4-1.7-4.6-4c-0.2-2.6,1.8-4.7,4.3-4.7h24.7
				c15.7,0,28.5,13.6,28.5,30.3c0,8-2.9,15.6-8.2,21.3C136.5,83.3,129.3,86.5,121.6,86.5z"/>
		</g>
		<g>
			<path class="st0" d="M65.4,68.7c-8.3,1-15.2-5.9-14.2-14.2c0.7-5.6,5.3-10.2,10.9-10.9c8.3-1,15.2,5.9,14.2,14.2
				C75.6,63.5,71.1,68,65.4,68.7z M65,50.9c-4-0.9-7.4,2.6-6.5,6.5c0.4,2,2.1,3.6,4,4c4,0.9,7.4-2.6,6.5-6.5
				C68.6,53,67,51.4,65,50.9z"/>
		</g>
		<g>
			<path class="st0" d="M109.7,68.7c-8.3,1-15.2-5.9-14.2-14.2c0.7-5.6,5.3-10.2,10.9-10.9c8.3-1,15.2,5.9,14.2,14.2
				C119.8,63.5,115.3,68,109.7,68.7z M109.3,50.9c-4-0.9-7.4,2.6-6.5,6.5c0.4,2,2.1,3.6,4,4c4,0.9,7.4-2.6,6.5-6.5
				C112.9,53,111.2,51.4,109.3,50.9z"/>
		</g>
	</g>
	<g>
		<path class="st0" d="M0,110.1h5.8c4.7,0,7.9,3.4,7.9,7.4s-3.2,7.4-7.9,7.4H0V110.1z M3,112.9v9.4h2.9c2.8,0,4.7-2.1,4.7-4.7
			c0-2.6-2-4.7-4.7-4.7H3z"/>
		<path class="st0" d="M37.4,117.6c0,4.2-3.2,7.8-7.9,7.8c-4.7,0-7.9-3.6-7.9-7.8s3.2-7.8,7.9-7.8C34.2,109.7,37.4,113.3,37.4,117.6
			z M34.3,117.6c0-2.8-2-5-4.8-5c-2.8,0-4.8,2.2-4.8,5c0,2.8,2,5,4.8,5C32.3,122.6,34.3,120.4,34.3,117.6z"/>
		<path class="st0" d="M46.2,110.1H50l3.6,6.2l3.6-6.2H61V125h-3v-10.6l-3.3,5.6h-2.1l-3.3-5.6V125h-3V110.1z"/>
		<path class="st0" d="M71,110.1h3V125h-3V110.1z"/>
		<path class="st0" d="M84.1,110.1H88l6.6,10.7v-10.7h3V125h-3.9l-6.6-10.7V125h-3V110.1z"/>
		<path class="st0" d="M107.7,110.1h3V125h-3V110.1z"/>
		<path class="st0" d="M136.4,126c0.3,0,0.7,0,1.1-0.2v2.5c-0.5,0.2-0.9,0.3-1.6,0.3c-1.7,0-3.2-0.7-4.6-2l-1.8-1.6
			c-0.6,0.2-1.3,0.3-2,0.3c-4.7,0-7.9-3.6-7.9-7.8s3.2-7.8,7.9-7.8c4.7,0,7.9,3.6,7.9,7.8c0,2.5-1.1,4.7-2.9,6.2l0.9,0.8
			C134.4,125.6,135.4,126,136.4,126z M132.2,117.6c0-2.8-2-5-4.8-5c-2.8,0-4.8,2.2-4.8,5c0,2.8,2,5,4.8,5
			C130.2,122.6,132.2,120.4,132.2,117.6z"/>
		<path class="st0" d="M152.8,110.1h3v9c0,3.9-2.3,6.2-6,6.2c-3.7,0-6-2.3-6-6.2v-9h3v9.3c0,2,1.1,3.2,3,3.2c1.8,0,3-1.2,3-3.2
			V110.1z"/>
		<path class="st0" d="M165.5,110.1h8.6v2.5h-5.6v3.5h4.8v2.5h-4.8v3.8h5.6v2.5h-8.6V110.1z"/>
	</g>
</g>
</svg>
