<?xml version="1.0" encoding="utf-8"?>
<!-- Generator: Adobe Illustrator 25.2.0, SVG Export Plug-In . SVG Version: 6.00 Build 0)  -->
<svg version="1.1" id="Calque_1" xmlns="http://www.w3.org/2000/svg" xmlns:xlink="http://www.w3.org/1999/xlink" x="0px" y="0px"
	 viewBox="0 0 87 87" style="enable-background:new 0 0 87 87;" xml:space="preserve">
<style type="text/css">
	.st0{fill:#FFFFFF;}
	.st1{clip-path:url(#SVGID_2_);}
	.st2{fill:#E10814;}
</style>
<g id="Catégories" transform="translate(12 9)">
	<g transform="matrix(1, 0, 0, 1, -12, -9)">
		<path id="Rectangle_13-2" class="st0" d="M30,0h27c16.6,0,30,13.4,30,30v27c0,16.6-13.4,30-30,30H30C13.4,87,0,73.6,0,57V30
			C0,13.4,13.4,0,30,0z"/>
	</g>
</g>
<g id="Groupe_5" transform="translate(28.864 30.474)">
	<g>
		<defs>
			<rect id="SVGID_1_" x="-12" y="-9" width="52.5" height="43"/>
		</defs>
		<clipPath id="SVGID_2_">
			<use xlink:href="#SVGID_1_"  style="overflow:visible;"/>
		</clipPath>
		<g id="Groupe_4" class="st1">
			<path id="Tracé_7" class="st2" d="M14.3,0.3c-0.5,0-0.8,0.4-0.8,0.8v25.3c0,0.5,0.4,0.8,0.8,0.8s0.8-0.4,0.8-0.8l0,0V1.2
				C15.1,0.7,14.7,0.3,14.3,0.3L14.3,0.3"/>
			<path id="Tracé_8" class="st2" d="M-11.2,30.6c2.4-0.2,4.7-0.8,6.9-1.7c2.9-1,6.1-2.1,9.3-2.1c2.5-0.1,5,0.9,6.7,2.7
				c0.3,0.3,0.8,0.4,1.2,0.1c0.3-0.3,0.4-0.8,0.1-1.2c0,0,0,0,0,0c-2-2.2-4.9-3.4-7.9-3.3c-3.5,0-6.9,1.2-9.9,2.2
				c-1.8,0.7-3.6,1.2-5.5,1.5V-3.5c2.1-0.3,4.1-0.9,6.1-1.6c2.9-1,6.1-2.1,9.3-2.1c6.5,0,8.2,5.2,8.3,5.4c0.1,0.4,0.6,0.7,1.1,0.6
				c0.3-0.1,0.5-0.3,0.6-0.6c1.3-3.4,4.7-5.6,8.3-5.4c3.2,0,6.5,1.1,9.3,2.1c2,0.8,4,1.3,6.1,1.6v32.4c-1.9-0.3-3.7-0.8-5.5-1.5
				c-3-1-6.4-2.2-9.9-2.2c-3-0.1-5.9,1.1-7.9,3.3c-0.3,0.3-0.3,0.9,0,1.2s0.9,0.3,1.2,0c0,0,0,0,0,0c1.7-1.8,4.2-2.8,6.7-2.7
				c3.2,0,6.5,1.1,9.3,2.1c2.2,0.9,4.6,1.5,6.9,1.7c0.5,0,0.8-0.4,0.8-0.8l0,0V-4.4c0-0.5-0.4-0.8-0.8-0.8c-2.2-0.2-4.3-0.7-6.4-1.6
				c-3-1-6.4-2.2-9.9-2.2c-3.7-0.2-7.2,1.7-9.1,4.9c-0.3-0.6-0.8-1.1-1.2-1.6C11-7.9,8.1-9.1,5.1-9C1.6-9-1.8-7.8-4.8-6.8
				c-2,0.8-4.2,1.4-6.4,1.6c-0.5,0-0.8,0.4-0.8,0.8v34.1C-12,30.2-11.6,30.6-11.2,30.6C-11.2,30.6-11.2,30.6-11.2,30.6"/>
			<path id="Tracé_9" class="st2" d="M5.1,30.2c2.5-0.1,4.9,0.9,6.7,2.7c0.2,0.2,0.4,0.3,0.6,0.3h3.7c0.2,0,0.5-0.1,0.6-0.3
				c1.7-1.8,4.2-2.8,6.7-2.7c3.2,0,6.5,1.1,9.3,2.1c2.2,0.9,4.6,1.5,6.9,1.7c0.5,0,0.8-0.4,0.8-0.8s-0.4-0.8-0.8-0.8l0,0
				c-2.2-0.2-4.3-0.7-6.4-1.6c-3-1-6.4-2.2-9.9-2.2c-2.9-0.1-5.6,1-7.7,3h-2.9c-2-2-4.8-3.1-7.7-3c-3.5,0-6.9,1.2-9.9,2.2
				c-2,0.8-4.2,1.4-6.4,1.6c-0.5,0-0.8,0.4-0.8,0.8s0.4,0.8,0.8,0.8c2.4-0.2,4.7-0.8,6.9-1.7C-1.3,31.3,1.9,30.2,5.1,30.2"/>
		</g>
	</g>
</g>
</svg>
