<?xml version="1.0" encoding="utf-8"?>
<!-- Generator: Adobe Illustrator 25.2.0, SVG Export Plug-In . SVG Version: 6.00 Build 0)  -->
<svg version="1.1" id="Calque_1" xmlns="http://www.w3.org/2000/svg" xmlns:xlink="http://www.w3.org/1999/xlink" x="0px" y="0px"
	 viewBox="0 0 87 87" style="enable-background:new 0 0 87 87;" xml:space="preserve">
<style type="text/css">
	.st0{fill:#FFFFFF;}
	.st1{clip-path:url(#SVGID_2_);}
	.st2{fill:#E10814;}
</style>
<g id="Catégories" transform="translate(12 9)">
	<g transform="matrix(1, 0, 0, 1, -12, -9)">
		<path id="Rectangle_13-2" class="st0" d="M30,0h27c16.6,0,30,13.4,30,30v27c0,16.6-13.4,30-30,30H30C13.4,87,0,73.6,0,57V30
			C0,13.4,13.4,0,30,0z"/>
	</g>
</g>
<g id="Groupe_13" transform="translate(26.828 24.629)">
	<g>
		<defs>
			<rect id="SVGID_1_" x="-12" y="-9" width="55.6" height="55.6"/>
		</defs>
		<clipPath id="SVGID_2_">
			<use xlink:href="#SVGID_1_"  style="overflow:visible;"/>
		</clipPath>
		<g id="Groupe_12" class="st1">
			<path id="Tracé_25" class="st2" d="M42.7,13.8l-4-1c-0.6-2.4-1.5-4.6-2.8-6.7l2.1-3.6c0.3-0.4,0.2-1-0.2-1.3l-4.6-4.6
				C33-3.7,32.4-3.8,32-3.5l-3.6,2.1c-2.1-1.3-4.3-2.2-6.7-2.8l-1-4C20.6-8.7,20.2-9,19.7-9h-6.5c-0.5,0-0.9,0.3-1.1,0.8l-1,4.1
				C8.8-3.5,6.6-2.6,4.5-1.3L0.9-3.5c-0.4-0.3-1-0.2-1.3,0.2l-4.6,4.6c-0.4,0.4-0.4,0.9-0.2,1.3L-3,6.3c-1.2,2-2.1,4.2-2.7,6.5
				l-4.2,1.1c-0.5,0.1-0.8,0.6-0.8,1.1v6.5c0,0.5,0.3,0.9,0.8,1.1l4.3,1.1c0.5,2.2,1.4,4.4,2.6,6.4l-5.9,5.9l0,0l-1.5,1.5
				c-2.1,2.1-2.1,5.5,0,7.7s5.5,2.1,7.7,0c0,0,0,0,0,0l1.5-1.5l0,0l5.9-5.9c2,1.2,4.1,2.1,6.4,2.6l1.1,4.3c0.1,0.5,0.6,0.8,1.1,0.8
				h6.5c0.5,0,0.9-0.3,1.1-0.8l1.1-4.2c2.3-0.5,4.5-1.4,6.5-2.7l3.7,2.2c0.4,0.3,1,0.2,1.3-0.2l4.6-4.6c0.4-0.4,0.4-0.9,0.2-1.3
				L35.9,30c1.3-2,2.2-4.3,2.7-6.6l4.1-1c0.5-0.1,0.8-0.6,0.8-1.1v-6.5C43.6,14.4,43.2,13.9,42.7,13.8 M-4.3,43.4
				c-1.2,1.3-3.3,1.4-4.6,0.2S-10.3,40.3-9,39c0.1-0.1,0.1-0.1,0.2-0.2l0.8-0.8l4.6,4.6L-4.3,43.4z M3.8,35.4L3.8,35.4L-2,41.1
				l-4.6-4.6l5.7-5.7l0,0l4.7-4.7l0,0l3.8-3.8c1,2,2.6,3.6,4.6,4.6l-3.8,3.8l0,0L3.8,35.4z M19.1,16.8c0.2-0.6-0.1-1.2-0.7-1.4
				c-0.2-0.1-0.5-0.1-0.7,0l-8.9,3c0-0.1,0-0.2,0-0.3c0-4.2,3.4-7.6,7.6-7.6c4.2,0,7.6,3.4,7.6,7.6s-3.4,7.6-7.6,7.6l0,0
				c-0.1,0-0.2,0-0.3,0L19.1,16.8z M14,25.1l-0.2,0.2c-2.1-0.8-3.8-2.5-4.6-4.6l0.2-0.2l6.9-2.3L14,25.1z M41.4,20.5l-3.9,1
				c-0.4,0.1-0.7,0.4-0.8,0.8c-0.5,2.5-1.5,4.9-3,7.1c-0.2,0.3-0.2,0.8,0,1.2l2.1,3.5l-3.4,3.4l-3.5-2.1c-0.4-0.2-0.8-0.2-1.1,0
				c-2.1,1.4-4.5,2.4-7,2.9c-0.4,0.1-0.7,0.4-0.8,0.8l-1,4H14L13,39c-0.1-0.4-0.4-0.7-0.8-0.8C10.1,37.8,8.1,37,6.3,36l3.1-3.1
				c8.1,3.9,17.8,0.4,21.7-7.7s0.4-17.8-7.7-21.7c-0.4-0.2-0.8-0.4-1.3-0.5C21.6,2.7,21,3,20.8,3.5c-0.2,0.6,0.1,1.2,0.6,1.4l0,0
				c7.3,2.7,11,10.9,8.3,18.2s-10.9,11-18.2,8.3c-0.1-0.1-0.3-0.1-0.4-0.2l3.5-3.5c5.3,1,10.4-2.4,11.5-7.7c1-5.3-2.4-10.4-7.7-11.5
				c-5.3-1-10.4,2.4-11.5,7.7c-0.2,1.3-0.2,2.5,0,3.8l-3.5,3.5C0.4,16.3,3.8,8.1,11,5.1C11.2,5,11.3,5,11.5,4.9
				c0.6-0.2,0.8-0.8,0.6-1.4c-0.2-0.6-0.8-0.8-1.4-0.6l0,0C2.3,6-2,15.4,1.2,23.8c0.2,0.4,0.4,0.9,0.6,1.3l-3.1,3.1
				c-1.1-1.8-1.8-3.8-2.2-5.9C-3.7,22-4,21.7-4.4,21.6l-4.1-1v-4.8l4-1c0.4-0.1,0.7-0.4,0.8-0.8c0.5-2.5,1.5-4.9,2.9-7
				c0.2-0.3,0.2-0.8,0-1.1l-2.1-3.5l3.4-3.4L4,0.9c0.4,0.2,0.8,0.2,1.2,0c2.1-1.4,4.5-2.4,7.1-3c0.4-0.1,0.7-0.4,0.8-0.8l1-3.9h4.8
				l1,3.9c0.1,0.4,0.4,0.7,0.8,0.8c2.6,0.5,5,1.5,7.2,3C28.1,1,28.6,1,29,0.8l3.4-2.1l3.4,3.4l-2,3.4c-0.2,0.4-0.2,0.8,0,1.2
				c1.4,2.2,2.4,4.6,3,7.2c0.1,0.4,0.4,0.7,0.8,0.8l3.9,1L41.4,20.5z"/>
		</g>
	</g>
</g>
</svg>
