<?xml version="1.0" encoding="utf-8"?>
<!-- Generator: Adobe Illustrator 25.2.0, SVG Export Plug-In . SVG Version: 6.00 Build 0)  -->
<svg version="1.1" id="Calque_1" xmlns="http://www.w3.org/2000/svg" xmlns:xlink="http://www.w3.org/1999/xlink" x="0px" y="0px"
	 viewBox="0 0 87 87" style="enable-background:new 0 0 87 87;" xml:space="preserve">
<style type="text/css">
	.st0{fill:#FFFFFF;}
	.st1{clip-path:url(#SVGID_2_);}
	.st2{fill:#E10814;}
</style>
<g id="Catégories" transform="translate(12 9)">
	<g transform="matrix(1, 0, 0, 1, -12, -9)">
		<path id="Rectangle_13-2" class="st0" d="M30,0h27c16.6,0,30,13.4,30,30v27c0,16.6-13.4,30-30,30H30C13.4,87,0,73.6,0,57V30
			C0,13.4,13.4,0,30,0z"/>
	</g>
</g>
<g id="Groupe_11" transform="translate(28.828 35.156)">
	<g>
		<defs>
			<rect id="SVGID_1_" x="-12" y="-9" width="52.1" height="39.5"/>
		</defs>
		<clipPath id="SVGID_2_">
			<use xlink:href="#SVGID_1_"  style="overflow:visible;"/>
		</clipPath>
		<g id="Groupe_10" class="st1">
			<path id="Tracé_23" class="st2" d="M7.7-2.8c-4,0-7.3,3.2-7.3,7.3s3.2,7.3,7.3,7.3S15,8.5,15,4.5c0,0,0,0,0,0
				C15,0.5,11.7-2.8,7.7-2.8 M7.7,9.7c-2.9,0-5.2-2.3-5.2-5.2s2.3-5.2,5.2-5.2s5.2,2.3,5.2,5.2c0,0,0,0,0,0
				C12.9,7.4,10.6,9.7,7.7,9.7"/>
			<path id="Tracé_24" class="st2" d="M39.1-9H23.3c-0.6,0-1,0.5-1,1c-0.1,1.2-1.1,2-2.2,2c-1.1-0.1-1.9-0.9-2-2c0-0.6-0.5-1-1-1
				c0,0,0,0,0,0H7.7C2-9-3.1-5.4-5,0l-0.1,0.4h-2.7c-2.3,0-4.1,1.9-4.1,4.1c0,1.8,1.1,3.3,2.8,3.9l0.4,0.1v8.4
				c0,7.5,6,13.6,13.5,13.6h6.2c2.3,0,4.1-1.9,4.1-4.1c0-2.3-1.9-4.1-4.1-4.1H-1.6c-2.9-0.1-5.2-2.4-5.2-5.3V8.6h1.7L-5,9
				c2.5,7,10.2,10.7,17.2,8.2c3.8-1.3,6.7-4.3,8.1-8c1.8-4.2,5.9-6.9,10.5-6.8h8.3c0.6,0,1-0.5,1-1V-8C40.1-8.5,39.6-9,39.1-9
				 M-3,24.2c0.5,0.1,0.9,0.1,1.4,0.1h12.5c1.2-0.1,2.2,0.8,2.2,2c0.1,1.2-0.8,2.2-2,2.2c-0.1,0-0.2,0-0.3,0H4.6
				c-3.1,0-6-1.2-8.1-3.4l-1.2-1.3L-3,24.2z M-5.7,6l0.1,0.6h-2.2c-1.2-0.1-2-1.1-2-2.2c0.1-1.1,0.9-1.9,2-2h2.3L-5.7,3
				C-5.8,4-5.8,5-5.7,6 M38.1,0.3h-7.2c-5.4-0.1-10.3,3.1-12.4,8.1c-1.7,4.5-5.9,7.5-10.7,7.5c-0.4,0-0.8,0-1.2-0.1
				C0.2,15.2-4.3,9.6-3.7,3.3C-3.1-2.5,1.8-7,7.7-7h8.4l0.1,0.4c0.8,2.2,3.1,3.3,5.3,2.5c1.2-0.4,2.1-1.3,2.5-2.5L24.2-7h13.9V0.3z"
				/>
		</g>
	</g>
</g>
</svg>
