<svg id="_034-instagram" data-name="034-instagram" xmlns="http://www.w3.org/2000/svg" width="416" height="416" viewBox="0 0 416 416">
  <g id="Groupe_1870" data-name="Groupe 1870">
    <g id="Groupe_1869" data-name="Groupe 1869">
      <path id="Tracé_4335" data-name="Tracé 4335" d="M286,0H130A130.014,130.014,0,0,0,0,130V286A130.014,130.014,0,0,0,130,416H286A130.014,130.014,0,0,0,416,286V130A130.014,130.014,0,0,0,286,0Zm91,286a91.1,91.1,0,0,1-91,91H130a91.1,91.1,0,0,1-91-91V130a91.1,91.1,0,0,1,91-91H286a91.1,91.1,0,0,1,91,91Z" fill="#004494"/>
    </g>
  </g>
  <g id="Groupe_1872" data-name="Groupe 1872" transform="translate(104 104)">
    <g id="Groupe_1871" data-name="Groupe 1871">
      <path id="Tracé_4336" data-name="Tracé 4336" d="M232,128A104,104,0,1,0,336,232,104,104,0,0,0,232,128Zm0,169a65,65,0,1,1,65-65A65.09,65.09,0,0,1,232,297Z" transform="translate(-128 -128)" fill="#004494"/>
    </g>
  </g>
  <g id="Groupe_1874" data-name="Groupe 1874" transform="translate(305.942 82.342)">
    <g id="Groupe_1873" data-name="Groupe 1873">
      <circle id="Ellipse_200" data-name="Ellipse 200" cx="13.858" cy="13.858" r="13.858" fill="#004494"/>
    </g>
  </g>
</svg>
