<svg xmlns="http://www.w3.org/2000/svg" width="605.093" height="416" viewBox="0 0 605.093 416">
  <g id="_002-youtube" data-name="002-youtube" transform="translate(0 -80)">
    <g id="Groupe_1764" data-name="Groupe 1764" transform="translate(0 80)">
      <path id="Tracé_4285" data-name="Tracé 4285" d="M579.375,120.087c-16.413-29.2-34.225-34.566-70.493-36.608C472.652,81.021,381.548,80,302.621,80c-79.078,0-170.22,1.021-206.412,3.441-36.192,2.08-54.042,7.412-70.607,36.646C8.7,149.245,0,199.468,0,287.887v.3c0,88.041,8.7,138.641,25.6,167.5,16.564,29.2,34.377,34.49,70.569,36.948C132.4,494.752,223.543,496,302.621,496c78.927,0,170.031-1.248,206.3-3.328,36.268-2.458,54.08-7.753,70.493-36.948,17.056-28.855,25.679-79.456,25.679-167.5v-.3C605.091,199.468,596.468,149.245,579.375,120.087ZM226.909,401.455V174.545L416,288Z" transform="translate(0 -80)" fill="#fff"/>
    </g>
  </g>
</svg>
