<?xml version="1.0" encoding="utf-8"?>
<!-- Generator: Adobe Illustrator 25.2.0, SVG Export Plug-In . SVG Version: 6.00 Build 0)  -->
<svg version="1.1" id="Calque_1" xmlns="http://www.w3.org/2000/svg" xmlns:xlink="http://www.w3.org/1999/xlink" x="0px" y="0px"
	 viewBox="0 0 87 87" style="enable-background:new 0 0 87 87;" xml:space="preserve">
<style type="text/css">
	.st0{fill:#FFFFFF;}
	.st1{clip-path:url(#SVGID_2_);}
	.st2{fill:#E10814;}
</style>
<g id="Catégories" transform="translate(12 9)">
	<g transform="matrix(1, 0, 0, 1, -12, -9)">
		<path id="Rectangle_13-2" class="st0" d="M30,0h27c16.6,0,30,13.4,30,30v27c0,16.6-13.4,30-30,30H30C13.4,87,0,73.6,0,57V30
			C0,13.4,13.4,0,30,0z"/>
	</g>
</g>
<g id="Groupe_9" transform="translate(28.828 23.414)">
	<g>
		<defs>
			<rect id="SVGID_1_" x="-12" y="-9" width="53.7" height="57.2"/>
		</defs>
		<clipPath id="SVGID_2_">
			<use xlink:href="#SVGID_1_"  style="overflow:visible;"/>
		</clipPath>
		<g id="Groupe_8" class="st1">
			<path id="Tracé_12" class="st2" d="M25.7,5.2L25.7,5.2c-2.9-2.9-6.8-4.5-10.9-4.5h-0.2C6,1-0.9,8.1-0.8,16.8
				c0,5.2,2.5,10.1,6.7,13.1c0.4,0.3,0.6,0.7,0.5,1.1v2.4l-0.2,0.1c-2.1,1.2-2.8,3.9-1.6,5.9c0.5,0.9,1.3,1.6,2.3,1.9l0.3,0.1v2.2
				c0,2.4,2,4.4,4.4,4.4h6.5c2.4,0,4.4-2,4.4-4.4v-2.2l0.3-0.1c2.3-0.8,3.5-3.3,2.7-5.6c-0.3-1-1-1.8-1.9-2.3l-0.2-0.1V31
				c0-0.4,0.2-0.8,0.5-1.1c7.3-5.3,8.9-15.5,3.6-22.7C26.9,6.5,26.3,5.8,25.7,5.2 M20.2,43.9c0,1.2-0.9,2.1-2.1,2.1h-6.5
				c-1.2,0-2.1-0.9-2.1-2.1v-2.1h10.7V43.9z M23.4,37.4c0,1.2-0.9,2.1-2.1,2.1H8.4c-1.2,0-2.1-0.9-2.2-2.1c0-1.2,0.9-2.1,2.1-2.2
				c0,0,0.1,0,0.1,0h12.9C22.5,35.3,23.4,36.2,23.4,37.4 M24.2,26.6L24.2,26.6c-0.5,0.5-1.1,1-1.7,1.4C21.6,28.8,21,29.9,21,31v2
				H8.7v-2c0-1.2-0.6-2.3-1.5-2.9c-3.6-2.6-5.8-6.8-5.8-11.3C1.3,9.3,7.2,3.2,14.7,2.9h0.2c3.5,0,6.8,1.4,9.3,3.8
				C29.7,12.3,29.7,21.2,24.2,26.6C24.2,26.6,24.2,26.6,24.2,26.6"/>
			<path id="Tracé_13" class="st2" d="M18.5,7.9c-0.6-0.2-1.2,0.1-1.5,0.6c-0.2,0.6,0.1,1.2,0.6,1.4c2.2,0.9,3.9,2.8,4.5,5.1
				c0.2,0.6,0.8,0.9,1.4,0.7c0.6-0.2,0.9-0.8,0.8-1.4C23.5,11.5,21.4,9.1,18.5,7.9"/>
			<path id="Tracé_14" class="st2" d="M13.7-7.9v3.2c0,0.6,0.5,1.1,1.2,1.1C15.5-3.6,16-4,16-4.6v-3.2C16-8.5,15.4-9,14.8-9
				C14.2-8.9,13.8-8.5,13.7-7.9"/>
			<path id="Tracé_15" class="st2" d="M4.6-2.2c0.3,0.6,0.9,0.8,1.5,0.6s0.8-0.9,0.6-1.5l0,0l-1.3-3c-0.2-0.4-0.6-0.7-1-0.7
				c-0.6,0-1.1,0.5-1.1,1.1c0,0.2,0,0.3,0.1,0.5L4.6-2.2L4.6-2.2z"/>
			<path id="Tracé_16" class="st2" d="M-1.2,2L-1.2,2l-2.4-2.2c-0.2-0.2-0.5-0.3-0.8-0.3h-0.1c-0.6,0-1.1,0.6-1.1,1.2
				c0,0.3,0.1,0.6,0.4,0.8l2.4,2.2c0.4,0.4,1.1,0.4,1.5,0C-0.7,3.2-0.7,2.5-1.2,2C-1.2,2-1.2,2-1.2,2"/>
			<path id="Tracé_17" class="st2" d="M-6.3,9.9l-3.1-1C-10,8.7-10.6,9-10.8,9.6c-0.2,0.6,0.1,1.2,0.7,1.4c0,0,0,0,0.1,0l3.1,1
				c0.6,0.2,1.2-0.1,1.4-0.7v0C-5.4,10.7-5.7,10.1-6.3,9.9"/>
			<path id="Tracé_18" class="st2" d="M-7.8,19.2l-3.2,0.3c-0.6,0-1.1,0.6-1,1.2c0,0.6,0.6,1.1,1.2,1c0,0,0,0,0.1,0l3.2-0.3
				c0.6-0.1,1.1-0.6,1-1.2C-6.6,19.6-7.2,19.2-7.8,19.2"/>
			<path id="Tracé_19" class="st2" d="M40.7,19.6l-3.2-0.3c-0.6-0.1-1.2,0.4-1.2,1c-0.1,0.6,0.4,1.1,1,1.2h0l3.2,0.3
				c0.6,0.1,1.2-0.4,1.2-1c0,0,0,0,0,0C41.8,20.2,41.3,19.6,40.7,19.6"/>
			<path id="Tracé_20" class="st2" d="M40.5,10.5C40.7,9.9,40.5,9.3,40,9c-0.3-0.1-0.6-0.2-0.9-0.1l-3.1,1
				c-0.6,0.2-0.9,0.8-0.7,1.4c0.2,0.6,0.8,0.9,1.4,0.7l3.1-1C40.1,11,40.3,10.8,40.5,10.5"/>
			<path id="Tracé_21" class="st2" d="M34.9-0.1L34.9-0.1c-0.2-0.2-0.5-0.4-0.8-0.4h-0.1c-0.3,0-0.5,0.1-0.8,0.3L30.9,2
				c-0.5,0.4-0.5,1.1-0.1,1.6C31.3,4,32,4.1,32.4,3.7l2.4-2.2C35.3,1.1,35.3,0.4,34.9-0.1"/>
			<path id="Tracé_22" class="st2" d="M25.4-6.8c-0.4,0-0.8,0.3-1,0.7l-1.3,3c-0.3,0.6,0,1.2,0.6,1.5c0.1,0.1,0.3,0.1,0.5,0.1l0,0
				c0.4,0,0.8-0.3,1-0.7l1.3-3c0.3-0.6,0-1.2-0.6-1.5C25.7-6.7,25.5-6.8,25.4-6.8"/>
		</g>
	</g>
</g>
</svg>
