<?xml version="1.0" encoding="utf-8"?>
<!-- Generator: Adobe Illustrator 25.2.0, SVG Export Plug-In . SVG Version: 6.00 Build 0)  -->
<svg version="1.1" id="Calque_1" xmlns="http://www.w3.org/2000/svg" xmlns:xlink="http://www.w3.org/1999/xlink" x="0px" y="0px"
	 viewBox="0 0 87 87" style="enable-background:new 0 0 87 87;" xml:space="preserve">
<style type="text/css">
	.st0{fill:#FFFFFF;}
	.st1{clip-path:url(#SVGID_2_);}
	.st2{fill:#E10814;}
</style>
<g id="Catégories" transform="translate(12 9)">
	<g transform="matrix(1, 0, 0, 1, -12, -9)">
		<path id="Rectangle_13-2" class="st0" d="M30,0h27c16.6,0,30,13.4,30,30v27c0,16.6-13.4,30-30,30H30C13.4,87,0,73.6,0,57V30
			C0,13.4,13.4,0,30,0z"/>
	</g>
</g>
<g id="Groupe_3" transform="translate(33.769 27.89)">
	<g>
		<defs>
			<rect id="SVGID_1_" x="-12" y="-9" width="40.8" height="49.1"/>
		</defs>
		<clipPath id="SVGID_2_">
			<use xlink:href="#SVGID_1_"  style="overflow:visible;"/>
		</clipPath>
		<g id="Groupe_2" class="st1">
			<path id="Tracé_3" class="st2" d="M-11.1,34.4h0.8v3c0,1.5,1.2,2.6,2.6,2.6h33.8c1.5,0,2.6-1.2,2.6-2.6V-6.4
				c0-1.5-1.2-2.6-2.6-2.6H-7.6c-1.5,0-2.6,1.2-2.6,2.6v3h-0.8C-11.6-3.4-12-3-12-2.5c0,0,0,0,0,0v4.7c0,0.5,0.4,0.9,0.9,0.9h0.8
				v3.9h-0.8C-11.6,7.1-12,7.5-12,8v4.7c0,0.5,0.4,0.9,0.9,0.9h0.8v3.9h-0.8c-0.5,0-0.9,0.4-0.9,0.9v4.7c0,0.5,0.4,0.9,0.9,0.9
				c0,0,0,0,0,0h0.8v3.9h-0.8c-0.5,0-0.9,0.4-0.9,0.9c0,0,0,0,0,0v4.7C-12,34-11.6,34.4-11.1,34.4C-11.1,34.4-11.1,34.4-11.1,34.4
				 M-0.9-7.2h27c0.5,0,0.9,0.4,0.9,0.9v43.8c0,0.5-0.4,0.9-0.9,0.9h-27V-7.2z M-8.5-6.4c0-0.5,0.4-0.9,0.9-0.9h4.9v45.5h-4.9
				c-0.5,0-0.9-0.4-0.9-0.9v-3h2.7c0.5,0,0.9-0.4,0.9-0.9l0,0v-4.7c0-0.5-0.4-0.9-0.9-0.9c0,0,0,0,0,0h-2.7V24h2.7
				c0.5,0,0.9-0.4,0.9-0.9l0,0v-4.7c0-0.5-0.4-0.9-0.9-0.9h-2.7v-3.9h2.7c0.5,0,0.9-0.4,0.9-0.9V8c0-0.5-0.4-0.9-0.9-0.9h-2.7V3.1
				h2.7c0.5,0,0.9-0.4,0.9-0.9v-4.7c0-0.5-0.4-0.9-0.9-0.9c0,0,0,0,0,0h-2.7V-6.4z M-10.2-1.6h3.5v2.9h-3.5V-1.6z M-10.2,8.9h3.5
				v2.9h-3.5V8.9z M-10.2,19.3h3.5v2.9h-3.5V19.3z M-10.2,29.7h3.5v2.9h-3.5V29.7z"/>
			<path id="Tracé_4" class="st2" d="M12.8,2.3c-6,0-10.9,4.9-10.9,10.9s4.9,10.9,10.9,10.9c2,0,3.9-0.6,5.7-1.6l0,0l0-0.1
				c5.1-3.1,6.8-9.8,3.6-15C20.1,4.3,16.6,2.3,12.8,2.3 M17.1,21.2L17.1,21.2c-2.7,1.4-5.9,1.4-8.6,0l0,0V16c0-0.4,0.3-0.7,0.7-0.7
				h3.6l0,0.1v-0.1h3.6c0.4,0,0.7,0.3,0.7,0.7L17.1,21.2z M9.9,10.6c0-1.6,1.3-2.9,2.9-2.9c1.6,0,2.9,1.3,2.9,2.9
				c0,1.6-1.3,2.9-2.9,2.9h0C11.2,13.5,9.9,12.2,9.9,10.6 M19,19.9L18.9,20v-4c0-1.3-1-2.4-2.3-2.5l-0.1,0l0.1-0.1
				c1.5-2.1,1.1-5-0.9-6.6s-5-1.1-6.6,0.9c-1.2,1.7-1.2,3.9,0,5.6l0.1,0.1l-0.1,0c-1.3,0.1-2.3,1.2-2.3,2.5v4l-0.1-0.1
				c-1.9-1.7-2.9-4.1-2.9-6.7c0.1-5,4.2-9.1,9.2-9c5,0.1,9,4.1,9,9C21.9,15.7,20.9,18.2,19,19.9"/>
			<path id="Tracé_5" class="st2" d="M22.8,27.1h-20c-0.5,0-0.9,0.3-1,0.8c0,0.5,0.3,0.9,0.8,1c0,0,0.1,0,0.1,0h20
				c0.5,0,0.9-0.3,1-0.8c0-0.5-0.3-0.9-0.8-1C22.9,27.1,22.9,27.1,22.8,27.1"/>
			<path id="Tracé_6" class="st2" d="M19,31.6H6.7c-0.5,0-0.9,0.5-0.8,1c0,0.4,0.4,0.8,0.8,0.8H19c0.5,0,0.9-0.5,0.8-1
				C19.8,32,19.4,31.7,19,31.6"/>
		</g>
	</g>
</g>
</svg>
